<svg xmlns="http://www.w3.org/2000/svg" viewBox="0 0 1402.27 1373.5"><defs><style>.cls-2{fill:#a3663d}.cls-3{fill:#1d1d1b}</style></defs><path d="M1323.68 900.88c0-.1 0-.19.07-.29.15-.65.28-1.31.37-2 0-.13 0-.25.05-.38.09-.63.14-1.27.17-1.91v-.38-1.94-.31c0-.66-.12-1.33-.22-2a1.43 1.43 0 000-.22 20.12 20.12 0 00-.42-2v-.17c-.18-.67-.38-1.33-.62-2a1.34 1.34 0 00-.07-.18c-.23-.64-.5-1.28-.79-1.9l-.1-.2c-.12-.25-.24-.5-.37-.75s-.4-.72-.61-1.07a.56.56 0 000-.08c-.37-.62-.77-1.22-1.19-1.79-.43-.59-.9-1.15-1.38-1.69l-.06-.07a20 20 0 00-1.52-1.53l-.09-.09c-.53-.49-1.09-.94-1.67-1.38l-.1-.08c-.59-.44-1.21-.85-1.84-1.24h-.06a23.49 23.49 0 00-6.52-2.68h-.14c-.7-.17-1.41-.31-2.12-.41h-.23q-1-.13-2.07-.18h-.24a20.65 20.65 0 00-2.08 0h-.17c-.71 0-1.41.12-2.12.23h-.11c-.7.11-1.41.26-2.11.44h-.09c-.69.18-1.37.39-2 .64h-.13c-.65.24-1.3.51-1.93.81l-.17.09c-.26.12-.52.24-.77.38-23.11 12.22-47.3 4.4-59.67-1.36-21.23-9.89-40.53-28.32-51.65-49.3-17.54-33.13-10.67-80 15.33-104.53l.5-.5.33-.32c.43-.45.83-.91 1.21-1.38l.21-.26c.41-.51.8-1 1.16-1.58l.09-.13c.38-.58.73-1.17 1.06-1.78a23.35 23.35 0 001.66-3.94v-.05c.21-.67.39-1.33.54-2a1.16 1.16 0 010-.18c.13-.63.24-1.26.32-1.9V705c.06-.56.11-1.13.13-1.7v-.51-2.13c0-.64-.12-1.28-.22-1.91v-.17a23.4 23.4 0 00-3.22-8.58c-.16-.26-.33-.52-.51-.77a.86.86 0 00-.1-.16 23.26 23.26 0 00-4-4.42.27.27 0 01-.08-.07c-.26-.21-.51-.43-.78-.63l-.49-.37-.38-.29-.75-.51-.16-.1c-.29-.19-.59-.38-.9-.55q-1-.55-2-1c-.32-.15-.65-.29-1-.42h-.08c-.3-.12-.59-.23-.9-.33l-.2-.07-.77-.25-.36-.11-.62-.17-.53-.13-.46-.1-.71-.14h-.29c-.29 0-.59-.1-.88-.13h-.14c-.34 0-.68-.08-1-.1a22.29 22.29 0 00-4.47.08h-.08l-1 .13-.35.07-.72.13-.83.2-.25.06a24 24 0 00-2.41.76 156.05 156.05 0 01-127-284.34 23.41 23.41 0 0011-28.91c-.06-.21-.1-.42-.17-.62a23.41 23.41 0 00-29.64-15.25 95.31 95.31 0 01-113.7-46.24c-11.5-21.72-12.42-50.83-2.52-79.89 9.78-28.69 29-52.91 51.39-64.78.21-.1.41-.22.61-.33s.17-.1.26-.16c.57-.33 1.12-.68 1.65-1.06l.25-.17c.54-.39 1.06-.8 1.55-1.23l.22-.18c.5-.44 1-.9 1.43-1.38l.21-.22c.45-.48.88-1 1.28-1.5l.2-.25c.4-.53.78-1.08 1.13-1.64.06-.09.12-.17.17-.26.36-.59.7-1.19 1-1.8l.12-.23c.32-.65.6-1.32.86-2a.54.54 0 010-.11.19.19 0 010-.07q.38-1 .66-2.1v-.17a21.73 21.73 0 00.44-2.13 2.34 2.34 0 000-.26 20.74 20.74 0 00.22-2.1 1.69 1.69 0 000-.23 20.6 20.6 0 000-2.08.76.76 0 000-.15c0-.72-.09-1.43-.19-2.15a23 23 0 00-1.85-6.34l-.06-.15c-.19-.39-.38-.79-.58-1.18l-.34-.6-.15-.26c-.34-.58-.69-1.13-1.07-1.66l-.16-.23c-.4-.55-.82-1.08-1.25-1.59l-.15-.17c-.46-.52-.94-1-1.43-1.49l-.14-.13c-.52-.48-1.05-.94-1.61-1.37l-.13-.11c-.57-.44-1.17-.85-1.78-1.24l-.1-.06c-.65-.4-1.31-.77-2-1.11a22.9 22.9 0 00-2.61-1.1 621.74 621.74 0 00-113.1-30.28A618.07 618.07 0 101323 903.07a.38.38 0 010-.1c.3-.69.5-1.38.68-2.09z" fill="#eabc8b"/><circle class="cls-2" cx="387.47" cy="583.44" r="78.03"/><path class="cls-3" d="M387.62 685a101.57 101.57 0 1141.05-8.72 101.74 101.74 0 01-41.05 8.72zm-.22-156a54.49 54.49 0 1049.88 32.39A54.25 54.25 0 00387.4 529z"/><circle class="cls-2" cx="645.26" cy="918.5" r="93.54"/><path class="cls-3" d="M645.3 1035.65a117.32 117.32 0 1147.44-10.12 117 117 0 01-47.44 10.12zm-.14-187.14a70 70 0 1064.08 41.61 69.6 69.6 0 00-64.08-41.61z"/><path class="cls-2" d="M841.61 1243.81a93.54 93.54 0 01171-75.86"/><path class="cls-3" d="M841.63 1267.36a23.55 23.55 0 01-21.54-14 117.08 117.08 0 11214-94.95 23.54 23.54 0 11-43 19.09 70 70 0 00-128 56.77 23.56 23.56 0 01-21.51 33.1z"/><path class="cls-2" d="M517.58 118.93a123.78 123.78 0 11-215.25 122.3"/><path class="cls-3" d="M410.19 327.48a148.12 148.12 0 01-39.35-5.35 146.37 146.37 0 01-89-69.27 23.54 23.54 0 0140.96-23.26 100.24 100.24 0 10174.31-99 23.54 23.54 0 1140.94-23.26c40.13 70.64 15.32 160.75-55.31 200.88a146.49 146.49 0 01-72.55 19.26z"/><path class="cls-2" d="M118 794.78a123.79 123.79 0 1195.62 228.36"/><path class="cls-3" d="M213.67 1046.69a23.55 23.55 0 01-9.1-45.27 100.24 100.24 0 10-77.43-184.92A23.55 23.55 0 01109 773.06a147.33 147.33 0 01113.8 271.8 23.52 23.52 0 01-9.13 1.83z"/><circle class="cls-2" cx="701.4" cy="533.06" r="65.32"/><path class="cls-3" d="M701.43 622a88.88 88.88 0 1181.19-125 89 89 0 01-81.19 125zm-.1-130.68a41.76 41.76 0 1038.25 24.83 41.83 41.83 0 00-38.25-24.86z"/><path class="cls-3" d="M1285.31 885.86c0-.17.1-.35.14-.52s.11-.46.16-.69l.09-.41c0-.26.1-.51.14-.77s0-.23.05-.35.08-.53.11-.8v-.33c0-.27 0-.53.07-.8s0-.23 0-.35v-.77-.4-.7-.48-.61-.57l-.06-.53-.09-.64c0-.15-.05-.3-.07-.45s-.08-.47-.13-.7 0-.26-.08-.39-.11-.49-.18-.74l-.09-.37-.21-.73c0-.13-.08-.25-.13-.38s-.15-.47-.23-.7-.11-.29-.17-.44-.15-.41-.24-.61-.15-.37-.23-.55-.15-.33-.23-.49-.22-.47-.34-.7l-.15-.29v-.05c-.14-.28-.3-.55-.46-.83 0-.06-.07-.13-.11-.2-.2-.33-.41-.66-.63-1-.08-.13-.18-.26-.27-.39s-.25-.37-.39-.55-.29-.39-.44-.58l-.26-.33-.49-.57-.26-.3-.5-.53-.3-.31-.49-.47-.35-.33-.47-.41-.41-.35c-.14-.12-.3-.24-.45-.35s-.3-.25-.46-.36l-.43-.31-.51-.36-.45-.28c-.17-.11-.35-.23-.53-.33l-.51-.29-.49-.28-1-.49h-.06c-.36-.17-.72-.33-1.09-.48l-.14-.05c-.32-.13-.64-.26-1-.37l-.3-.09-.75-.25-.53-.15-.57-.15-.66-.15-.44-.1-.75-.14-.36-.06-.8-.1h-.33l-.8-.07H1260.36l-.55.06c-.21 0-.41 0-.61.09l-.49.07-.66.13-.44.09-.69.16-.43.11-.67.2-.46.14-.61.21-.54.2c-.17.07-.35.13-.52.21l-.66.29-.38.17c-.29.13-.58.28-.86.43l-.16.07c-23.23 12.3-47.56 4.42-60-1.37-21.35-9.94-40.76-28.47-51.94-49.57-17.62-33.28-10.74-80.37 15.33-105a22.78 22.78 0 001.74-1.81c.49-.56.94-1.15 1.37-1.75l.19-.27c.36-.53.71-1.07 1-1.63.09-.14.16-.29.24-.43.29-.52.56-1.06.8-1.6.07-.16.14-.31.2-.47.24-.55.46-1.11.65-1.68 0-.14.08-.27.13-.4.19-.61.36-1.23.51-1.85 0-.09 0-.17.05-.25.15-.68.27-1.36.36-2v-.09c.09-.73.15-1.46.17-2.2v-2.25a23.3 23.3 0 00-.25-2.19v-.15c-.11-.68-.25-1.35-.43-2l-.09-.32c-.16-.56-.34-1.13-.54-1.7-.06-.17-.13-.34-.2-.52-.21-.54-.44-1.07-.68-1.59l-.17-.36c-.31-.63-.64-1.23-1-1.82l-.09-.16a23.25 23.25 0 00-4.61-5.39c-.56-.48-1.14-.94-1.74-1.36l-.28-.19c-.53-.36-1.07-.71-1.62-1l-.44-.23c-.52-.29-1-.56-1.6-.8l-.47-.21c-.55-.23-1.11-.45-1.68-.64l-.4-.13c-.61-.19-1.23-.36-1.85-.51h-.25c-.67-.15-1.36-.27-2-.36h-.09a23.66 23.66 0 00-4.46-.13c-.73 0-1.47.13-2.2.25h-.14c-.68.11-1.36.25-2 .43l-.31.09c-.57.16-1.14.34-1.7.54l-.35.12a156.92 156.92 0 01-127.89-286.19 23.55 23.55 0 0011.08-28.9c-.07-.26-.15-.53-.23-.79a23.55 23.55 0 00-29.65-15.16 95.83 95.83 0 01-114.31-46.49c-11.56-21.84-12.49-51.12-2.53-80.33 9.83-28.86 29.15-53.21 51.67-65.14l.34-.19.58-.33.46-.28.52-.33.48-.32.47-.33.49-.37.42-.33.49-.4.38-.34.48-.43.37-.36.44-.44.36-.39.41-.45.36-.42.37-.45.35-.46c.12-.15.23-.3.34-.46l.34-.48.31-.47c.1-.17.21-.33.31-.49l.3-.51.27-.49c.1-.18.2-.37.29-.56l.24-.46c.1-.2.19-.41.29-.62s.12-.29.19-.43l.27-.7.13-.3v-.09l.24-.69c0-.15.1-.3.14-.45s.11-.37.16-.55.12-.39.17-.59 0-.14 0-.21a23.62 23.62 0 00.69-5.38v-.86-.31-.62-.55-.37c0-.12-.06-.53-.1-.8v-.09a23.3 23.3 0 00-1.37-5.16c0-.08-.05-.16-.08-.23l-.24-.55c-.08-.18-.15-.37-.24-.55s-.13-.27-.2-.4-.21-.45-.33-.67a.36.36 0 000-.09l-.16-.28c-.12-.22-.24-.44-.37-.66l-.24-.39-.37-.59-.29-.42-.36-.52-.34-.45-.36-.46-.37-.45-.37-.42-.4-.44-.39-.41-.41-.41-.42-.4-.42-.37-.55-.4c-.13-.12-.27-.23-.41-.34l-.5-.38c-.13-.11-.27-.21-.41-.31l-.52-.36-.44-.29-.53-.33-.46-.28-.53-.3-.51-.27-.51-.25-.58-.27-.47-.21-.63-.25-.35-.14-.23-.08A625.49 625.49 0 00802 67.39a621.27 621.27 0 10-102.61 1234.06c3.64 0 7.29 0 10.93-.09a620.72 620.72 0 00574.43-413.73.42.42 0 010-.1l.12-.37.22-.67c.12-.25.17-.44.22-.63zm-161.85 181.3a574.17 574.17 0 11-329.31-953.33 575.83 575.83 0 0165 14.89 175.08 175.08 0 00-36.49 62.1c-14.12 41.45-12.12 84.3 5.5 117.56a142.94 142.94 0 0095.25 72.78 204.1 204.1 0 00153 339.21q7 0 14-.49a145.11 145.11 0 00-6 24.66c-4.54 29.92.28 60.24 13.59 85.37 16 30.29 42.89 55.88 73.66 70.21 17.54 8.17 35.32 12.29 52.54 12.36a570.94 570.94 0 01-100.74 154.68z"/></svg>